<svg width="49" height="48" viewBox="0 0 49 48" fill="none" xmlns="http://www.w3.org/2000/svg">
<g id="logo">
<g id="lucide/box">
<path id="Vector" d="M6.325 13.4167L23 23M23 23L39.675 13.4167M23 23V42.1667M40.25 15.3333C40.2493 14.6611 40.0719 14.0009 39.7354 13.4189C39.399 12.8369 38.9155 12.3536 38.3333 12.0175L24.9167 4.35082C24.3339 4.01437 23.6729 3.83725 23 3.83725C22.3271 3.83725 21.6661 4.01437 21.0833 4.35082L7.66667 12.0175C7.0845 12.3536 6.60096 12.8369 6.26455 13.4189C5.92814 14.0009 5.75069 14.6611 5.75 15.3333V30.6667C5.75069 31.3389 5.92814 31.9991 6.26455 32.5811C6.60096 33.1631 7.0845 33.6464 7.66667 33.9825L21.0833 41.6492C21.6661 41.9856 22.3271 42.1627 23 42.1627C23.6729 42.1627 24.3339 41.9856 24.9167 41.6492L38.3333 33.9825C38.9155 33.6464 39.399 33.1631 39.7354 32.5811C40.0719 31.9991 40.2493 31.3389 40.25 30.6667V15.3333Z" stroke="#FAFAFA" stroke-width="2" stroke-linecap="round" stroke-linejoin="round"/>
</g>
<g id="4">
<mask id="path-2-outside-1_8130_409" maskUnits="userSpaceOnUse" x="24" y="11" width="24" height="29" fill="black">
<rect fill="white" x="24" y="11" width="24" height="29"/>
<path d="M25.7259 34.3977V30.0384L36.6562 12.8182H40.4148V18.8523H38.1903L31.2997 29.7571V29.9616H46.8324V34.3977H25.7259ZM38.2926 39V33.0682L38.3949 31.1378V12.8182H43.5852V39H38.2926Z"/>
</mask>
<path d="M25.7259 34.3977V30.0384L36.6562 12.8182H40.4148V18.8523H38.1903L31.2997 29.7571V29.9616H46.8324V34.3977H25.7259ZM38.2926 39V33.0682L38.3949 31.1378V12.8182H43.5852V39H38.2926Z" fill="white"/>
<path d="M25.7259 34.3977H24.7259V35.3977H25.7259V34.3977ZM25.7259 30.0384L24.8816 29.5025L24.7259 29.7478V30.0384H25.7259ZM36.6562 12.8182V11.8182H36.1066L35.812 12.2823L36.6562 12.8182ZM40.4148 12.8182H41.4148V11.8182H40.4148V12.8182ZM40.4148 18.8523V19.8523H41.4148V18.8523H40.4148ZM38.1903 18.8523V17.8523H37.6393L37.345 18.3181L38.1903 18.8523ZM31.2997 29.7571L30.4543 29.2229L30.2997 29.4676V29.7571H31.2997ZM31.2997 29.9616H30.2997V30.9616H31.2997V29.9616ZM46.8324 29.9616H47.8324V28.9616H46.8324V29.9616ZM46.8324 34.3977V35.3977H47.8324V34.3977H46.8324ZM38.2926 39H37.2926V40H38.2926V39ZM38.2926 33.0682L37.294 33.0153L37.2926 33.0417V33.0682H38.2926ZM38.3949 31.1378L39.3935 31.1907L39.3949 31.1643V31.1378H38.3949ZM38.3949 12.8182V11.8182H37.3949V12.8182H38.3949ZM43.5852 12.8182H44.5852V11.8182H43.5852V12.8182ZM43.5852 39V40H44.5852V39H43.5852ZM26.7259 34.3977V30.0384H24.7259V34.3977H26.7259ZM26.5701 30.5743L37.5005 13.3541L35.812 12.2823L24.8816 29.5025L26.5701 30.5743ZM36.6562 13.8182H40.4148V11.8182H36.6562V13.8182ZM39.4148 12.8182V18.8523H41.4148V12.8182H39.4148ZM40.4148 17.8523H38.1903V19.8523H40.4148V17.8523ZM37.345 18.3181L30.4543 29.2229L32.1451 30.2913L39.0357 19.3865L37.345 18.3181ZM30.2997 29.7571V29.9616H32.2997V29.7571H30.2997ZM31.2997 30.9616H46.8324V28.9616H31.2997V30.9616ZM45.8324 29.9616V34.3977H47.8324V29.9616H45.8324ZM46.8324 33.3977H25.7259V35.3977H46.8324V33.3977ZM39.2926 39V33.0682H37.2926V39H39.2926ZM39.2912 33.1211L39.3935 31.1907L37.3963 31.0849L37.294 33.0153L39.2912 33.1211ZM39.3949 31.1378V12.8182H37.3949V31.1378H39.3949ZM38.3949 13.8182H43.5852V11.8182H38.3949V13.8182ZM42.5852 12.8182V39H44.5852V12.8182H42.5852ZM43.5852 38H38.2926V40H43.5852V38Z" fill="#262626" mask="url(#path-2-outside-1_8130_409)"/>
</g>
</g>
</svg>
