<svg width="184" height="42" viewBox="0 0 184 42" fill="none" xmlns="http://www.w3.org/2000/svg">
<g id="logo">
<g id="lucide/box">
<path id="Vector" d="M5.775 12.25L21 21M21 21L36.225 12.25M21 21V38.5M36.75 14C36.7494 13.3862 36.5874 12.7834 36.2802 12.252C35.973 11.7207 35.5315 11.2794 35 10.9725L22.75 3.97251C22.2179 3.66532 21.6144 3.5036 21 3.5036C20.3856 3.5036 19.7821 3.66532 19.25 3.97251L7 10.9725C6.46846 11.2794 6.02697 11.7207 5.71981 12.252C5.41265 12.7834 5.25063 13.3862 5.25 14V28C5.25063 28.6138 5.41265 29.2166 5.71981 29.748C6.02697 30.2794 6.46846 30.7206 7 31.0275L19.25 38.0275C19.7821 38.3347 20.3856 38.4964 21 38.4964C21.6144 38.4964 22.2179 38.3347 22.75 38.0275L35 31.0275C35.5315 30.7206 35.973 30.2794 36.2802 29.748C36.5874 29.2166 36.7494 28.6138 36.75 28V14Z" stroke="#FAFAFA" stroke-width="2" stroke-linecap="round" stroke-linejoin="round"/>
</g>
<g id="4inventory">
<mask id="path-2-outside-1_8129_246" maskUnits="userSpaceOnUse" x="23" y="9" width="162" height="33" fill="black">
<rect fill="white" x="23" y="9" width="162" height="33"/>
<path d="M24.4382 30.1648V26.532L33.5469 12.1818H36.679V17.2102H34.8253L29.0831 26.2976V26.468H42.027V30.1648H24.4382ZM34.9105 34V29.0568L34.9957 27.4482V12.1818H39.321V34H34.9105ZM45.1431 34V17.6364H49.6815V34H45.1431ZM47.4229 15.527C46.7482 15.527 46.1694 15.3033 45.6864 14.8558C45.2106 14.4013 44.9727 13.858 44.9727 13.2259C44.9727 12.6009 45.2106 12.0646 45.6864 11.6172C46.1694 11.1626 46.7482 10.9354 47.4229 10.9354C48.0977 10.9354 48.6729 11.1626 49.1488 11.6172C49.6317 12.0646 49.8732 12.6009 49.8732 13.2259C49.8732 13.858 49.6317 14.4013 49.1488 14.8558C48.6729 15.3033 48.0977 15.527 47.4229 15.527ZM57.8553 24.5398V34H53.3169V17.6364H57.6422V20.5234H57.834C58.1962 19.5717 58.8034 18.8189 59.6557 18.2649C60.508 17.7038 61.5414 17.4233 62.7559 17.4233C63.8922 17.4233 64.883 17.6719 65.7282 18.169C66.5733 18.6662 67.2303 19.3764 67.699 20.2997C68.1678 21.2159 68.4022 22.3097 68.4022 23.581V34H63.8638V24.3906C63.8709 23.3892 63.6152 22.608 63.0968 22.0469C62.5783 21.4787 61.8645 21.1946 60.9554 21.1946C60.3446 21.1946 59.8049 21.326 59.3361 21.5888C58.8745 21.8516 58.5123 22.2351 58.2495 22.7393C57.9938 23.2365 57.8624 23.8366 57.8553 24.5398ZM86.6488 17.6364L80.9279 34H75.8143L70.0934 17.6364H74.8874L78.2859 29.3445H78.4563L81.8441 17.6364H86.6488ZM95.9013 34.3196C94.218 34.3196 92.7692 33.9787 91.5547 33.2969C90.3473 32.608 89.4169 31.6349 88.7635 30.3778C88.1101 29.1136 87.7834 27.6186 87.7834 25.8928C87.7834 24.2095 88.1101 22.7322 88.7635 21.4609C89.4169 20.1896 90.3366 19.1989 91.5227 18.4886C92.7159 17.7784 94.1151 17.4233 95.7202 17.4233C96.7997 17.4233 97.8047 17.5973 98.7351 17.9453C99.6726 18.2862 100.489 18.8011 101.185 19.4901C101.888 20.179 102.435 21.0455 102.826 22.0895C103.217 23.1264 103.412 24.3409 103.412 25.733V26.9794H89.5945V24.1669H99.1399C99.1399 23.5135 98.9979 22.9347 98.7138 22.4304C98.4297 21.9261 98.0355 21.532 97.5312 21.2479C97.0341 20.9567 96.4553 20.8111 95.7947 20.8111C95.1058 20.8111 94.495 20.9709 93.9624 21.2905C93.4368 21.603 93.0249 22.0256 92.7266 22.5582C92.4283 23.0838 92.2756 23.6697 92.2685 24.3161V26.9901C92.2685 27.7997 92.4176 28.4993 92.7159 29.0888C93.0213 29.6783 93.451 30.1328 94.005 30.4524C94.5589 30.772 95.2159 30.9318 95.9759 30.9318C96.4801 30.9318 96.9418 30.8608 97.3608 30.7188C97.7798 30.5767 98.1385 30.3636 98.4368 30.0795C98.7351 29.7955 98.9624 29.4474 99.1186 29.0355L103.316 29.3125C103.103 30.321 102.666 31.2017 102.006 31.9545C101.352 32.7003 100.507 33.2827 99.4702 33.7017C98.4403 34.1136 97.2507 34.3196 95.9013 34.3196ZM110.912 24.5398V34H106.374V17.6364H110.699V20.5234H110.891C111.253 19.5717 111.86 18.8189 112.712 18.2649C113.565 17.7038 114.598 17.4233 115.812 17.4233C116.949 17.4233 117.94 17.6719 118.785 18.169C119.63 18.6662 120.287 19.3764 120.756 20.2997C121.224 21.2159 121.459 22.3097 121.459 23.581V34H116.92V24.3906C116.928 23.3892 116.672 22.608 116.153 22.0469C115.635 21.4787 114.921 21.1946 114.012 21.1946C113.401 21.1946 112.862 21.326 112.393 21.5888C111.931 21.8516 111.569 22.2351 111.306 22.7393C111.05 23.2365 110.919 23.8366 110.912 24.5398ZM133.74 17.6364V21.0455H123.885V17.6364H133.74ZM126.122 13.7159H130.661V28.9716C130.661 29.3906 130.725 29.7173 130.852 29.9517C130.98 30.179 131.158 30.3388 131.385 30.4311C131.619 30.5234 131.889 30.5696 132.195 30.5696C132.408 30.5696 132.621 30.5518 132.834 30.5163C133.047 30.4737 133.21 30.4418 133.324 30.4205L134.038 33.7976C133.811 33.8686 133.491 33.9503 133.079 34.0426C132.667 34.142 132.166 34.2024 131.577 34.2237C130.483 34.2663 129.524 34.1207 128.7 33.7869C127.884 33.4531 127.248 32.9347 126.794 32.2315C126.339 31.5284 126.115 30.6406 126.122 29.5682V13.7159ZM143.914 34.3196C142.259 34.3196 140.828 33.968 139.62 33.2649C138.42 32.5547 137.493 31.5675 136.84 30.3033C136.186 29.032 135.86 27.5582 135.86 25.8821C135.86 24.1918 136.186 22.7145 136.84 21.4503C137.493 20.179 138.42 19.1918 139.62 18.4886C140.828 17.7784 142.259 17.4233 143.914 17.4233C145.568 17.4233 146.996 17.7784 148.196 18.4886C149.404 19.1918 150.334 20.179 150.987 21.4503C151.641 22.7145 151.968 24.1918 151.968 25.8821C151.968 27.5582 151.641 29.032 150.987 30.3033C150.334 31.5675 149.404 32.5547 148.196 33.2649C146.996 33.968 145.568 34.3196 143.914 34.3196ZM143.935 30.804C144.688 30.804 145.316 30.5909 145.82 30.1648C146.325 29.7315 146.705 29.142 146.96 28.3963C147.223 27.6506 147.355 26.8018 147.355 25.8501C147.355 24.8984 147.223 24.0497 146.96 23.304C146.705 22.5582 146.325 21.9687 145.82 21.5355C145.316 21.1023 144.688 20.8857 143.935 20.8857C143.175 20.8857 142.536 21.1023 142.017 21.5355C141.506 21.9687 141.119 22.5582 140.856 23.304C140.6 24.0497 140.472 24.8984 140.472 25.8501C140.472 26.8018 140.6 27.6506 140.856 28.3963C141.119 29.142 141.506 29.7315 142.017 30.1648C142.536 30.5909 143.175 30.804 143.935 30.804ZM154.919 34V17.6364H159.318V20.4915H159.489C159.787 19.4759 160.288 18.7088 160.991 18.1903C161.694 17.6648 162.504 17.402 163.42 17.402C163.647 17.402 163.892 17.4162 164.155 17.4446C164.418 17.473 164.649 17.5121 164.847 17.5618V21.5888C164.634 21.5249 164.34 21.468 163.963 21.4183C163.587 21.3686 163.242 21.3438 162.93 21.3438C162.262 21.3438 161.666 21.4893 161.14 21.7805C160.622 22.0646 160.21 22.4624 159.904 22.9737C159.606 23.4851 159.457 24.0746 159.457 24.7422V34H154.919ZM170.494 40.1364C169.919 40.1364 169.379 40.0902 168.874 39.9979C168.377 39.9126 167.965 39.8026 167.639 39.6676L168.661 36.2798C169.194 36.4432 169.673 36.532 170.1 36.5462C170.533 36.5604 170.906 36.4609 171.218 36.2479C171.538 36.0348 171.797 35.6726 171.996 35.1612L172.262 34.4688L166.392 17.6364H171.165L174.553 29.6534H174.723L178.143 17.6364H182.948L176.588 35.7685C176.282 36.6491 175.867 37.4162 175.341 38.0696C174.823 38.7301 174.166 39.2379 173.37 39.593C172.575 39.9553 171.616 40.1364 170.494 40.1364Z"/>
</mask>
<path d="M24.4382 30.1648V26.532L33.5469 12.1818H36.679V17.2102H34.8253L29.0831 26.2976V26.468H42.027V30.1648H24.4382ZM34.9105 34V29.0568L34.9957 27.4482V12.1818H39.321V34H34.9105ZM45.1431 34V17.6364H49.6815V34H45.1431ZM47.4229 15.527C46.7482 15.527 46.1694 15.3033 45.6864 14.8558C45.2106 14.4013 44.9727 13.858 44.9727 13.2259C44.9727 12.6009 45.2106 12.0646 45.6864 11.6172C46.1694 11.1626 46.7482 10.9354 47.4229 10.9354C48.0977 10.9354 48.6729 11.1626 49.1488 11.6172C49.6317 12.0646 49.8732 12.6009 49.8732 13.2259C49.8732 13.858 49.6317 14.4013 49.1488 14.8558C48.6729 15.3033 48.0977 15.527 47.4229 15.527ZM57.8553 24.5398V34H53.3169V17.6364H57.6422V20.5234H57.834C58.1962 19.5717 58.8034 18.8189 59.6557 18.2649C60.508 17.7038 61.5414 17.4233 62.7559 17.4233C63.8922 17.4233 64.883 17.6719 65.7282 18.169C66.5733 18.6662 67.2303 19.3764 67.699 20.2997C68.1678 21.2159 68.4022 22.3097 68.4022 23.581V34H63.8638V24.3906C63.8709 23.3892 63.6152 22.608 63.0968 22.0469C62.5783 21.4787 61.8645 21.1946 60.9554 21.1946C60.3446 21.1946 59.8049 21.326 59.3361 21.5888C58.8745 21.8516 58.5123 22.2351 58.2495 22.7393C57.9938 23.2365 57.8624 23.8366 57.8553 24.5398ZM86.6488 17.6364L80.9279 34H75.8143L70.0934 17.6364H74.8874L78.2859 29.3445H78.4563L81.8441 17.6364H86.6488ZM95.9013 34.3196C94.218 34.3196 92.7692 33.9787 91.5547 33.2969C90.3473 32.608 89.4169 31.6349 88.7635 30.3778C88.1101 29.1136 87.7834 27.6186 87.7834 25.8928C87.7834 24.2095 88.1101 22.7322 88.7635 21.4609C89.4169 20.1896 90.3366 19.1989 91.5227 18.4886C92.7159 17.7784 94.1151 17.4233 95.7202 17.4233C96.7997 17.4233 97.8047 17.5973 98.7351 17.9453C99.6726 18.2862 100.489 18.8011 101.185 19.4901C101.888 20.179 102.435 21.0455 102.826 22.0895C103.217 23.1264 103.412 24.3409 103.412 25.733V26.9794H89.5945V24.1669H99.1399C99.1399 23.5135 98.9979 22.9347 98.7138 22.4304C98.4297 21.9261 98.0355 21.532 97.5312 21.2479C97.0341 20.9567 96.4553 20.8111 95.7947 20.8111C95.1058 20.8111 94.495 20.9709 93.9624 21.2905C93.4368 21.603 93.0249 22.0256 92.7266 22.5582C92.4283 23.0838 92.2756 23.6697 92.2685 24.3161V26.9901C92.2685 27.7997 92.4176 28.4993 92.7159 29.0888C93.0213 29.6783 93.451 30.1328 94.005 30.4524C94.5589 30.772 95.2159 30.9318 95.9759 30.9318C96.4801 30.9318 96.9418 30.8608 97.3608 30.7188C97.7798 30.5767 98.1385 30.3636 98.4368 30.0795C98.7351 29.7955 98.9624 29.4474 99.1186 29.0355L103.316 29.3125C103.103 30.321 102.666 31.2017 102.006 31.9545C101.352 32.7003 100.507 33.2827 99.4702 33.7017C98.4403 34.1136 97.2507 34.3196 95.9013 34.3196ZM110.912 24.5398V34H106.374V17.6364H110.699V20.5234H110.891C111.253 19.5717 111.86 18.8189 112.712 18.2649C113.565 17.7038 114.598 17.4233 115.812 17.4233C116.949 17.4233 117.94 17.6719 118.785 18.169C119.63 18.6662 120.287 19.3764 120.756 20.2997C121.224 21.2159 121.459 22.3097 121.459 23.581V34H116.92V24.3906C116.928 23.3892 116.672 22.608 116.153 22.0469C115.635 21.4787 114.921 21.1946 114.012 21.1946C113.401 21.1946 112.862 21.326 112.393 21.5888C111.931 21.8516 111.569 22.2351 111.306 22.7393C111.05 23.2365 110.919 23.8366 110.912 24.5398ZM133.74 17.6364V21.0455H123.885V17.6364H133.74ZM126.122 13.7159H130.661V28.9716C130.661 29.3906 130.725 29.7173 130.852 29.9517C130.98 30.179 131.158 30.3388 131.385 30.4311C131.619 30.5234 131.889 30.5696 132.195 30.5696C132.408 30.5696 132.621 30.5518 132.834 30.5163C133.047 30.4737 133.21 30.4418 133.324 30.4205L134.038 33.7976C133.811 33.8686 133.491 33.9503 133.079 34.0426C132.667 34.142 132.166 34.2024 131.577 34.2237C130.483 34.2663 129.524 34.1207 128.7 33.7869C127.884 33.4531 127.248 32.9347 126.794 32.2315C126.339 31.5284 126.115 30.6406 126.122 29.5682V13.7159ZM143.914 34.3196C142.259 34.3196 140.828 33.968 139.62 33.2649C138.42 32.5547 137.493 31.5675 136.84 30.3033C136.186 29.032 135.86 27.5582 135.86 25.8821C135.86 24.1918 136.186 22.7145 136.84 21.4503C137.493 20.179 138.42 19.1918 139.62 18.4886C140.828 17.7784 142.259 17.4233 143.914 17.4233C145.568 17.4233 146.996 17.7784 148.196 18.4886C149.404 19.1918 150.334 20.179 150.987 21.4503C151.641 22.7145 151.968 24.1918 151.968 25.8821C151.968 27.5582 151.641 29.032 150.987 30.3033C150.334 31.5675 149.404 32.5547 148.196 33.2649C146.996 33.968 145.568 34.3196 143.914 34.3196ZM143.935 30.804C144.688 30.804 145.316 30.5909 145.82 30.1648C146.325 29.7315 146.705 29.142 146.96 28.3963C147.223 27.6506 147.355 26.8018 147.355 25.8501C147.355 24.8984 147.223 24.0497 146.96 23.304C146.705 22.5582 146.325 21.9687 145.82 21.5355C145.316 21.1023 144.688 20.8857 143.935 20.8857C143.175 20.8857 142.536 21.1023 142.017 21.5355C141.506 21.9687 141.119 22.5582 140.856 23.304C140.6 24.0497 140.472 24.8984 140.472 25.8501C140.472 26.8018 140.6 27.6506 140.856 28.3963C141.119 29.142 141.506 29.7315 142.017 30.1648C142.536 30.5909 143.175 30.804 143.935 30.804ZM154.919 34V17.6364H159.318V20.4915H159.489C159.787 19.4759 160.288 18.7088 160.991 18.1903C161.694 17.6648 162.504 17.402 163.42 17.402C163.647 17.402 163.892 17.4162 164.155 17.4446C164.418 17.473 164.649 17.5121 164.847 17.5618V21.5888C164.634 21.5249 164.34 21.468 163.963 21.4183C163.587 21.3686 163.242 21.3438 162.93 21.3438C162.262 21.3438 161.666 21.4893 161.14 21.7805C160.622 22.0646 160.21 22.4624 159.904 22.9737C159.606 23.4851 159.457 24.0746 159.457 24.7422V34H154.919ZM170.494 40.1364C169.919 40.1364 169.379 40.0902 168.874 39.9979C168.377 39.9126 167.965 39.8026 167.639 39.6676L168.661 36.2798C169.194 36.4432 169.673 36.532 170.1 36.5462C170.533 36.5604 170.906 36.4609 171.218 36.2479C171.538 36.0348 171.797 35.6726 171.996 35.1612L172.262 34.4688L166.392 17.6364H171.165L174.553 29.6534H174.723L178.143 17.6364H182.948L176.588 35.7685C176.282 36.6491 175.867 37.4162 175.341 38.0696C174.823 38.7301 174.166 39.2379 173.37 39.593C172.575 39.9553 171.616 40.1364 170.494 40.1364Z" fill="white"/>
<path d="M24.4382 30.1648H23.4382V31.1648H24.4382V30.1648ZM24.4382 26.532L23.5939 25.9961L23.4382 26.2414V26.532H24.4382ZM33.5469 12.1818V11.1818H32.9972L32.7026 11.6459L33.5469 12.1818ZM36.679 12.1818H37.679V11.1818H36.679V12.1818ZM36.679 17.2102V18.2102H37.679V17.2102H36.679ZM34.8253 17.2102V16.2102H34.2743L33.9799 16.676L34.8253 17.2102ZM29.0831 26.2976L28.2377 25.7634L28.0831 26.0081V26.2976H29.0831ZM29.0831 26.468H28.0831V27.468H29.0831V26.468ZM42.027 26.468H43.027V25.468H42.027V26.468ZM42.027 30.1648V31.1648H43.027V30.1648H42.027ZM34.9105 34H33.9105V35H34.9105V34ZM34.9105 29.0568L33.9119 29.0039L33.9105 29.0303V29.0568H34.9105ZM34.9957 27.4482L35.9943 27.5011L35.9957 27.4746V27.4482H34.9957ZM34.9957 12.1818V11.1818H33.9957V12.1818H34.9957ZM39.321 12.1818H40.321V11.1818H39.321V12.1818ZM39.321 34V35H40.321V34H39.321ZM25.4382 30.1648V26.532H23.4382V30.1648H25.4382ZM25.2825 27.0679L34.3912 12.7177L32.7026 11.6459L23.5939 25.9961L25.2825 27.0679ZM33.5469 13.1818H36.679V11.1818H33.5469V13.1818ZM35.679 12.1818V17.2102H37.679V12.1818H35.679ZM36.679 16.2102H34.8253V18.2102H36.679V16.2102ZM33.9799 16.676L28.2377 25.7634L29.9285 26.8318L35.6707 17.7444L33.9799 16.676ZM28.0831 26.2976V26.468H30.0831V26.2976H28.0831ZM29.0831 27.468H42.027V25.468H29.0831V27.468ZM41.027 26.468V30.1648H43.027V26.468H41.027ZM42.027 29.1648H24.4382V31.1648H42.027V29.1648ZM35.9105 34V29.0568H33.9105V34H35.9105ZM35.9091 29.1097L35.9943 27.5011L33.9971 27.3952L33.9119 29.0039L35.9091 29.1097ZM35.9957 27.4482V12.1818H33.9957V27.4482H35.9957ZM34.9957 13.1818H39.321V11.1818H34.9957V13.1818ZM38.321 12.1818V34H40.321V12.1818H38.321ZM39.321 33H34.9105V35H39.321V33ZM45.1431 34H44.1431V35H45.1431V34ZM45.1431 17.6364V16.6364H44.1431V17.6364H45.1431ZM49.6815 17.6364H50.6815V16.6364H49.6815V17.6364ZM49.6815 34V35H50.6815V34H49.6815ZM45.6864 14.8558L44.9957 15.5789L45.0012 15.5842L45.0068 15.5894L45.6864 14.8558ZM45.6864 11.6172L46.3715 12.3457L46.3718 12.3454L45.6864 11.6172ZM49.1488 11.6172L48.4581 12.3403L48.4636 12.3456L48.4692 12.3507L49.1488 11.6172ZM49.1488 14.8558L49.8338 15.5843L49.8342 15.584L49.1488 14.8558ZM46.1431 34V17.6364H44.1431V34H46.1431ZM45.1431 18.6364H49.6815V16.6364H45.1431V18.6364ZM48.6815 17.6364V34H50.6815V17.6364H48.6815ZM49.6815 33H45.1431V35H49.6815V33ZM47.4229 14.527C46.9933 14.527 46.6591 14.3938 46.3661 14.1223L45.0068 15.5894C45.6797 16.2128 46.5031 16.527 47.4229 16.527V14.527ZM46.3772 14.1327C46.0897 13.8581 45.9727 13.5724 45.9727 13.2259H43.9727C43.9727 14.1435 44.3314 14.9444 44.9957 15.5789L46.3772 14.1327ZM45.9727 13.2259C45.9727 12.8904 46.0864 12.6137 46.3715 12.3457L45.0014 10.8887C44.3348 11.5155 43.9727 12.3113 43.9727 13.2259H45.9727ZM46.3718 12.3454C46.6657 12.0688 46.9981 11.9354 47.4229 11.9354V9.93537C46.4984 9.93537 45.6731 10.2565 45.0011 10.889L46.3718 12.3454ZM47.4229 11.9354C47.8476 11.9354 48.1734 12.0684 48.4581 12.3403L49.8395 10.8941C49.1725 10.2569 48.3477 9.93537 47.4229 9.93537V11.9354ZM48.4692 12.3507C48.7601 12.6203 48.8732 12.8956 48.8732 13.2259H50.8732C50.8732 12.3061 50.5034 11.5089 49.8284 10.8836L48.4692 12.3507ZM48.8732 13.2259C48.8732 13.5673 48.7567 13.8516 48.4634 14.1276L49.8342 15.584C50.5068 14.951 50.8732 14.1486 50.8732 13.2259H48.8732ZM48.4638 14.1273C48.18 14.3941 47.8524 14.527 47.4229 14.527V16.527C48.3429 16.527 49.1658 16.2124 49.8338 15.5843L48.4638 14.1273ZM57.8553 24.5398L56.8553 24.5297V24.5398H57.8553ZM57.8553 34V35H58.8553V34H57.8553ZM53.3169 34H52.3169V35H53.3169V34ZM53.3169 17.6364V16.6364H52.3169V17.6364H53.3169ZM57.6422 17.6364H58.6422V16.6364H57.6422V17.6364ZM57.6422 20.5234H56.6422V21.5234H57.6422V20.5234ZM57.834 20.5234V21.5234H58.5234L58.7686 20.8791L57.834 20.5234ZM59.6557 18.2649L60.2007 19.1034L60.2056 19.1002L59.6557 18.2649ZM65.7282 18.169L66.2352 17.3071L65.7282 18.169ZM67.699 20.2997L66.8074 20.7524L66.8088 20.7552L67.699 20.2997ZM68.4022 34V35H69.4022V34H68.4022ZM63.8638 34H62.8638V35H63.8638V34ZM63.8638 24.3906L62.8638 24.3835V24.3906H63.8638ZM63.0968 22.0469L62.3581 22.7209L62.3623 22.7255L63.0968 22.0469ZM59.3361 21.5888L58.8471 20.7165L58.8414 20.7197L59.3361 21.5888ZM58.2495 22.7393L57.3626 22.2772L57.3602 22.282L58.2495 22.7393ZM56.8553 24.5398V34H58.8553V24.5398H56.8553ZM57.8553 33H53.3169V35H57.8553V33ZM54.3169 34V17.6364H52.3169V34H54.3169ZM53.3169 18.6364H57.6422V16.6364H53.3169V18.6364ZM56.6422 17.6364V20.5234H58.6422V17.6364H56.6422ZM57.6422 21.5234H57.834V19.5234H57.6422V21.5234ZM58.7686 20.8791C59.0555 20.1252 59.5265 19.5416 60.2007 19.1034L59.1107 17.4265C58.0804 18.0962 57.3369 19.0183 56.8994 20.1677L58.7686 20.8791ZM60.2056 19.1002C60.8657 18.6656 61.699 18.4233 62.7559 18.4233V16.4233C61.3837 16.4233 60.1503 16.7421 59.1058 17.4297L60.2056 19.1002ZM62.7559 18.4233C63.7426 18.4233 64.5526 18.6377 65.2211 19.031L66.2352 17.3071C65.2133 16.706 64.0418 16.4233 62.7559 16.4233V18.4233ZM65.2211 19.031C65.8922 19.4257 66.42 19.9895 66.8074 20.7524L68.5907 19.847C68.0406 18.7634 67.2544 17.9067 66.2352 17.3071L65.2211 19.031ZM66.8088 20.7552C67.1904 21.5011 67.4022 22.4314 67.4022 23.581H69.4022C69.4022 22.1879 69.1452 20.9308 68.5893 19.8442L66.8088 20.7552ZM67.4022 23.581V34H69.4022V23.581H67.4022ZM68.4022 33H63.8638V35H68.4022V33ZM64.8638 34V24.3906H62.8638V34H64.8638ZM64.8638 24.3977C64.8721 23.2236 64.5703 22.168 63.8312 21.3682L62.3623 22.7255C62.6602 23.0479 62.8697 23.5549 62.8638 24.3835L64.8638 24.3977ZM63.8355 21.3728C63.0929 20.5591 62.0898 20.1946 60.9554 20.1946V22.1946C61.6392 22.1946 62.0637 22.3983 62.3581 22.7209L63.8355 21.3728ZM60.9554 20.1946C60.1971 20.1946 59.4847 20.3591 58.8471 20.7165L59.8251 22.4611C60.1251 22.2929 60.4921 22.1946 60.9554 22.1946V20.1946ZM58.8414 20.7197C58.2008 21.0844 57.7078 21.615 57.3627 22.2772L59.1363 23.2015C59.3167 22.8552 59.5482 22.6187 59.8308 22.4578L58.8414 20.7197ZM57.3602 22.282C57.0173 22.9486 56.8636 23.71 56.8553 24.5297L58.8552 24.5499C58.8612 23.9633 58.9702 23.5244 59.1388 23.1967L57.3602 22.282ZM86.6488 17.6364L87.5928 17.9664L88.0578 16.6364H86.6488V17.6364ZM80.9279 34V35H81.6377L81.8719 34.33L80.9279 34ZM75.8143 34L74.8703 34.33L75.1045 35H75.8143V34ZM70.0934 17.6364V16.6364H68.6844L69.1494 17.9664L70.0934 17.6364ZM74.8874 17.6364L75.8478 17.3576L75.6384 16.6364H74.8874V17.6364ZM78.2859 29.3445L77.3255 29.6232L77.5349 30.3445H78.2859V29.3445ZM78.4563 29.3445V30.3445H79.208L79.4169 29.6224L78.4563 29.3445ZM81.8441 17.6364V16.6364H81.0924L80.8835 17.3584L81.8441 17.6364ZM85.7048 17.3063L79.9839 33.67L81.8719 34.33L87.5928 17.9664L85.7048 17.3063ZM80.9279 33H75.8143V35H80.9279V33ZM76.7582 33.67L71.0374 17.3063L69.1494 17.9664L74.8703 34.33L76.7582 33.67ZM70.0934 18.6364H74.8874V16.6364H70.0934V18.6364ZM73.9271 17.9151L77.3255 29.6232L79.2462 29.0657L75.8478 17.3576L73.9271 17.9151ZM78.2859 30.3445H78.4563V28.3445H78.2859V30.3445ZM79.4169 29.6224L82.8047 17.9143L80.8835 17.3584L77.4957 29.0665L79.4169 29.6224ZM81.8441 18.6364H86.6488V16.6364H81.8441V18.6364ZM91.5547 33.2969L91.0591 34.1655L91.0652 34.1689L91.5547 33.2969ZM88.7635 30.3778L87.8751 30.837L87.8762 30.839L88.7635 30.3778ZM88.7635 21.4609L87.8741 21.0038L88.7635 21.4609ZM91.5227 18.4886L91.0112 17.6293L91.009 17.6307L91.5227 18.4886ZM98.7351 17.9453L98.3847 18.882L98.3933 18.8851L98.7351 17.9453ZM101.185 19.4901L100.482 20.2008L100.486 20.2043L101.185 19.4901ZM102.826 22.0895L101.889 22.4399L101.89 22.442L102.826 22.0895ZM103.412 26.9794V27.9794H104.412V26.9794H103.412ZM89.5945 26.9794H88.5945V27.9794H89.5945V26.9794ZM89.5945 24.1669V23.1669H88.5945V24.1669H89.5945ZM99.1399 24.1669V25.1669H100.14V24.1669H99.1399ZM98.7138 22.4304L97.8425 22.9212L98.7138 22.4304ZM97.5312 21.2479L97.0258 22.1108L97.0331 22.115L97.0404 22.1191L97.5312 21.2479ZM93.9624 21.2905L94.4734 22.15L94.4769 22.148L93.9624 21.2905ZM92.7266 22.5582L93.5963 23.0519L93.5991 23.0468L92.7266 22.5582ZM92.2685 24.3161L91.2685 24.3051V24.3161H92.2685ZM92.7159 29.0888L91.8236 29.5403L91.828 29.5488L92.7159 29.0888ZM97.3608 30.7188L97.0398 29.7717L97.3608 30.7188ZM98.4368 30.0795L97.7471 29.3554L98.4368 30.0795ZM99.1186 29.0355L99.1845 28.0377L98.4461 27.989L98.1836 28.6809L99.1186 29.0355ZM103.316 29.3125L104.294 29.5192L104.533 28.3906L103.382 28.3147L103.316 29.3125ZM102.006 31.9545L101.254 31.295L101.254 31.2955L102.006 31.9545ZM99.4702 33.7017L99.8416 34.6302L99.8448 34.6289L99.4702 33.7017ZM95.9013 33.3196C94.3539 33.3196 93.0809 33.0069 92.0442 32.4249L91.0652 34.1689C92.4574 34.9505 94.0822 35.3196 95.9013 35.3196V33.3196ZM92.0503 32.4283C91.0133 31.8366 90.2173 31.0066 89.6508 29.9166L87.8762 30.839C88.6165 32.2633 89.6813 33.3793 91.0591 34.1654L92.0503 32.4283ZM89.6519 29.9187C89.0858 28.8235 88.7834 27.4924 88.7834 25.8928H86.7834C86.7834 27.7448 87.1344 29.4037 87.8751 30.837L89.6519 29.9187ZM88.7834 25.8928C88.7834 24.3404 89.084 23.0249 89.6529 21.9181L87.8741 21.0038C87.1361 22.4396 86.7834 24.0787 86.7834 25.8928H88.7834ZM89.6529 21.9181C90.224 20.8069 91.0162 19.9575 92.0365 19.3466L91.009 17.6307C89.6571 18.4402 88.6098 19.5724 87.8741 21.0038L89.6529 21.9181ZM92.0342 19.3479C93.0499 18.7434 94.2666 18.4233 95.7202 18.4233V16.4233C93.9635 16.4233 92.3819 16.8135 91.0112 17.6293L92.0342 19.3479ZM95.7202 18.4233C96.6905 18.4233 97.5757 18.5793 98.3847 18.8819L99.0854 17.0087C98.0336 16.6153 96.9089 16.4233 95.7202 16.4233V18.4233ZM98.3933 18.8851C99.1977 19.1776 99.8904 19.6154 100.482 20.2008L101.889 18.7793C101.088 17.9869 100.147 17.3948 99.0768 17.0055L98.3933 18.8851ZM100.486 20.2043C101.071 20.778 101.543 21.5148 101.889 22.4399L103.763 21.7391C103.327 20.5761 102.706 19.58 101.885 18.7758L100.486 20.2043ZM101.89 22.442C102.229 23.3415 102.412 24.4317 102.412 25.733H104.412C104.412 24.2501 104.204 22.9113 103.762 21.737L101.89 22.442ZM102.412 25.733V26.9794H104.412V25.733H102.412ZM103.412 25.9794H89.5945V27.9794H103.412V25.9794ZM90.5945 26.9794V24.1669H88.5945V26.9794H90.5945ZM89.5945 25.1669H99.1399V23.1669H89.5945V25.1669ZM100.14 24.1669C100.14 23.3641 99.9639 22.6121 99.585 21.9396L97.8425 22.9212C98.0318 23.2572 98.1399 23.6629 98.1399 24.1669H100.14ZM99.585 21.9396C99.2113 21.2761 98.6855 20.7504 98.0221 20.3766L97.0404 22.1191C97.3855 22.3135 97.6481 22.5761 97.8425 22.9212L99.585 21.9396ZM98.0367 20.385C97.3649 19.9915 96.6065 19.8111 95.7947 19.8111V21.8111C96.304 21.8111 96.7033 21.9218 97.0258 22.1108L98.0367 20.385ZM95.7947 19.8111C94.9449 19.8111 94.1525 20.0102 93.4479 20.433L94.4769 22.148C94.8376 21.9316 95.2667 21.8111 95.7947 21.8111V19.8111ZM93.4513 20.4309C92.775 20.8331 92.2383 21.3835 91.8541 22.0696L93.5991 23.0468C93.8114 22.6677 94.0986 22.3729 94.4734 22.15L93.4513 20.4309ZM91.8569 22.0646C91.4692 22.7477 91.2774 23.5016 91.2685 24.3051L93.2684 24.327C93.2738 23.8379 93.3873 23.4199 93.5962 23.0518L91.8569 22.0646ZM91.2685 24.3161V26.9901H93.2685V24.3161H91.2685ZM91.2685 26.9901C91.2685 27.9218 91.4403 28.7828 91.8236 29.5403L93.6082 28.6373C93.3949 28.2158 93.2685 27.6777 93.2685 26.9901H91.2685ZM91.828 29.5488C92.2178 30.3012 92.7792 30.8997 93.5052 31.3186L94.5047 29.5862C94.1228 29.3659 93.8248 29.0554 93.6038 28.6288L91.828 29.5488ZM93.5052 31.3186C94.2375 31.7411 95.0736 31.9318 95.9759 31.9318V29.9318C95.3582 29.9318 94.8804 29.803 94.5047 29.5862L93.5052 31.3186ZM95.9759 31.9318C96.5743 31.9318 97.1461 31.8474 97.6818 31.6658L97.0398 29.7717C96.7375 29.8742 96.3859 29.9318 95.9759 29.9318V31.9318ZM97.6818 31.6658C98.2281 31.4806 98.7153 31.1953 99.1264 30.8037L97.7471 29.3554C97.5617 29.532 97.3316 29.6728 97.0398 29.7717L97.6818 31.6658ZM99.1264 30.8037C99.5406 30.4093 99.848 29.9321 100.054 29.3902L98.1836 28.6809C98.0767 28.9627 97.9296 29.1816 97.7471 29.3554L99.1264 30.8037ZM99.0528 30.0333L103.25 30.3103L103.382 28.3147L99.1845 28.0377L99.0528 30.0333ZM102.338 29.1058C102.159 29.9516 101.798 30.6751 101.254 31.295L102.757 32.6141C103.534 31.7284 104.047 30.6905 104.294 29.5192L102.338 29.1058ZM101.254 31.2955C100.716 31.9093 100.006 32.4066 99.0955 32.7745L99.8448 34.6289C101.008 34.1588 101.989 33.4913 102.758 32.6136L101.254 31.2955ZM99.0988 32.7732C98.2096 33.1289 97.1503 33.3196 95.9013 33.3196V35.3196C97.3511 35.3196 98.6711 35.0984 99.8416 34.6302L99.0988 32.7732ZM110.912 24.5398L109.912 24.5297V24.5398H110.912ZM110.912 34V35H111.912V34H110.912ZM106.374 34H105.374V35H106.374V34ZM106.374 17.6364V16.6364H105.374V17.6364H106.374ZM110.699 17.6364H111.699V16.6364H110.699V17.6364ZM110.699 20.5234H109.699V21.5234H110.699V20.5234ZM110.891 20.5234V21.5234H111.58L111.825 20.8791L110.891 20.5234ZM112.712 18.2649L113.257 19.1034L113.262 19.1002L112.712 18.2649ZM118.785 18.169L119.292 17.3071L118.785 18.169ZM120.756 20.2997L119.864 20.7524L119.865 20.7552L120.756 20.2997ZM121.459 34V35H122.459V34H121.459ZM116.92 34H115.92V35H116.92V34ZM116.92 24.3906L115.92 24.3835V24.3906H116.92ZM116.153 22.0469L115.415 22.7209L115.419 22.7255L116.153 22.0469ZM112.393 21.5888L111.904 20.7165L111.898 20.7197L112.393 21.5888ZM111.306 22.7393L110.419 22.2772L110.417 22.282L111.306 22.7393ZM109.912 24.5398V34H111.912V24.5398H109.912ZM110.912 33H106.374V35H110.912V33ZM107.374 34V17.6364H105.374V34H107.374ZM106.374 18.6364H110.699V16.6364H106.374V18.6364ZM109.699 17.6364V20.5234H111.699V17.6364H109.699ZM110.699 21.5234H110.891V19.5234H110.699V21.5234ZM111.825 20.8791C112.112 20.1252 112.583 19.5416 113.257 19.1034L112.167 17.4265C111.137 18.0962 110.394 19.0183 109.956 20.1677L111.825 20.8791ZM113.262 19.1002C113.922 18.6656 114.756 18.4233 115.812 18.4233V16.4233C114.44 16.4233 113.207 16.7421 112.162 17.4297L113.262 19.1002ZM115.812 18.4233C116.799 18.4233 117.609 18.6377 118.278 19.031L119.292 17.3071C118.27 16.706 117.098 16.4233 115.812 16.4233V18.4233ZM118.278 19.031C118.949 19.4257 119.477 19.9895 119.864 20.7524L121.647 19.847C121.097 18.7634 120.311 17.9067 119.292 17.3071L118.278 19.031ZM119.865 20.7552C120.247 21.5011 120.459 22.4314 120.459 23.581H122.459C122.459 22.1879 122.202 20.9308 121.646 19.8442L119.865 20.7552ZM120.459 23.581V34H122.459V23.581H120.459ZM121.459 33H116.92V35H121.459V33ZM117.92 34V24.3906H115.92V34H117.92ZM117.92 24.3977C117.929 23.2236 117.627 22.168 116.888 21.3682L115.419 22.7255C115.717 23.0479 115.926 23.5549 115.92 24.3835L117.92 24.3977ZM116.892 21.3728C116.15 20.5591 115.146 20.1946 114.012 20.1946V22.1946C114.696 22.1946 115.12 22.3983 115.415 22.7209L116.892 21.3728ZM114.012 20.1946C113.254 20.1946 112.541 20.3591 111.904 20.7165L112.882 22.4611C113.182 22.2929 113.549 22.1946 114.012 22.1946V20.1946ZM111.898 20.7197C111.257 21.0844 110.764 21.615 110.419 22.2772L112.193 23.2015C112.373 22.8552 112.605 22.6187 112.887 22.4578L111.898 20.7197ZM110.417 22.282C110.074 22.9486 109.92 23.71 109.912 24.5297L111.912 24.5499C111.918 23.9633 112.027 23.5244 112.195 23.1967L110.417 22.282ZM133.74 17.6364H134.74V16.6364H133.74V17.6364ZM133.74 21.0455V22.0455H134.74V21.0455H133.74ZM123.885 21.0455H122.885V22.0455H123.885V21.0455ZM123.885 17.6364V16.6364H122.885V17.6364H123.885ZM126.122 13.7159V12.7159H125.122V13.7159H126.122ZM130.661 13.7159H131.661V12.7159H130.661V13.7159ZM130.852 29.9517L129.974 30.4306L129.981 30.442L130.852 29.9517ZM131.385 30.4311L131.009 31.3576L131.019 31.3615L131.385 30.4311ZM132.834 30.5163L132.998 31.5027L133.014 31.5001L133.03 31.4969L132.834 30.5163ZM133.324 30.4205L134.302 30.2137L134.1 29.2575L133.14 29.4376L133.324 30.4205ZM134.038 33.7976L134.336 34.7521L135.204 34.4807L135.016 33.5908L134.038 33.7976ZM133.079 34.0426L132.86 33.0668L132.852 33.0686L132.844 33.0705L133.079 34.0426ZM131.577 34.2237L131.541 33.2244L131.538 33.2245L131.577 34.2237ZM128.7 33.7869L128.322 34.7126L128.325 34.7137L128.7 33.7869ZM126.794 32.2315L127.633 31.6886L126.794 32.2315ZM126.122 29.5682L127.122 29.5748V29.5682H126.122ZM132.74 17.6364V21.0455H134.74V17.6364H132.74ZM133.74 20.0455H123.885V22.0455H133.74V20.0455ZM124.885 21.0455V17.6364H122.885V21.0455H124.885ZM123.885 18.6364H133.74V16.6364H123.885V18.6364ZM126.122 14.7159H130.661V12.7159H126.122V14.7159ZM129.661 13.7159V28.9716H131.661V13.7159H129.661ZM129.661 28.9716C129.661 29.4717 129.734 29.9887 129.975 30.4306L131.73 29.4729C131.716 29.446 131.661 29.3096 131.661 28.9716H129.661ZM129.981 30.442C130.212 30.8531 130.558 31.1745 131.009 31.3576L131.761 29.5046C131.756 29.5024 131.753 29.5009 131.753 29.5004C131.752 29.4999 131.751 29.4995 131.75 29.4987C131.75 29.4979 131.739 29.4889 131.724 29.4614L129.981 30.442ZM131.019 31.3615C131.392 31.5085 131.79 31.5696 132.195 31.5696V29.5696C131.989 29.5696 131.847 29.5384 131.752 29.5007L131.019 31.3615ZM132.195 31.5696C132.464 31.5696 132.732 31.5472 132.998 31.5027L132.67 29.5299C132.51 29.5565 132.352 29.5696 132.195 29.5696V31.5696ZM133.03 31.4969C133.242 31.4545 133.401 31.4235 133.508 31.4033L133.14 29.4376C133.02 29.46 132.852 29.4929 132.638 29.5358L133.03 31.4969ZM132.346 30.6272L133.059 34.0044L135.016 33.5908L134.302 30.2137L132.346 30.6272ZM133.74 32.8431C133.551 32.902 133.262 32.9767 132.86 33.0668L133.298 35.0184C133.719 34.9239 134.07 34.8352 134.336 34.7521L133.74 32.8431ZM132.844 33.0705C132.517 33.1495 132.087 33.2046 131.541 33.2244L131.613 35.2231C132.246 35.2002 132.817 35.1346 133.314 35.0147L132.844 33.0705ZM131.538 33.2245C130.554 33.2628 129.742 33.1298 129.076 32.8601L128.325 34.7137C129.307 35.1116 130.412 35.2699 131.616 35.223L131.538 33.2245ZM129.079 32.8613C128.441 32.6004 127.971 32.2104 127.633 31.6886L125.954 32.7744C126.525 33.6589 127.327 34.3058 128.322 34.7126L129.079 32.8613ZM127.633 31.6886C127.311 31.1895 127.116 30.5067 127.122 29.5748L125.122 29.5616C125.114 30.7746 125.367 31.8673 125.954 32.7744L127.633 31.6886ZM127.122 29.5682V13.7159H125.122V29.5682H127.122ZM139.62 33.2649L139.111 34.1256L139.117 34.1291L139.62 33.2649ZM136.84 30.3033L135.95 30.7604L135.951 30.7624L136.84 30.3033ZM136.84 21.4503L137.728 21.9094L137.729 21.9074L136.84 21.4503ZM139.62 18.4886L140.126 19.3515L140.127 19.3506L139.62 18.4886ZM148.196 18.4886L147.687 19.3493L147.693 19.3528L148.196 18.4886ZM150.987 21.4503L150.098 21.9074L150.099 21.9094L150.987 21.4503ZM150.987 30.3033L151.876 30.7624L151.877 30.7604L150.987 30.3033ZM148.196 33.2649L148.702 34.1278L148.703 34.1268L148.196 33.2649ZM145.82 30.1648L146.466 30.9286L146.472 30.9233L145.82 30.1648ZM146.96 28.3963L146.017 28.0639L146.014 28.072L146.96 28.3963ZM146.96 23.304L146.014 23.6283L146.017 23.6363L146.96 23.304ZM142.017 21.5355L141.376 20.7681L141.371 20.7725L142.017 21.5355ZM140.856 23.304L139.913 22.9716L139.91 22.9797L140.856 23.304ZM140.856 28.3963L139.91 28.7206L139.913 28.7287L140.856 28.3963ZM142.017 30.1648L141.371 30.9278L141.376 30.9326L141.382 30.9373L142.017 30.1648ZM143.914 33.3196C142.403 33.3196 141.152 32.9998 140.123 32.4008L139.117 34.1291C140.503 34.9363 142.115 35.3196 143.914 35.3196V33.3196ZM140.129 32.4043C139.094 31.7917 138.297 30.9452 137.728 29.8441L135.951 30.7624C136.689 32.1898 137.746 33.3177 139.111 34.1255L140.129 32.4043ZM137.729 29.8461C137.16 28.7388 136.86 27.4267 136.86 25.8821H134.86C134.86 27.6898 135.213 29.3252 135.95 30.7604L137.729 29.8461ZM136.86 25.8821C136.86 24.3217 137.161 23.0074 137.728 21.9094L135.951 20.9911C135.212 22.4216 134.86 24.0619 134.86 25.8821H136.86ZM137.729 21.9074C138.298 20.8002 139.094 19.9558 140.126 19.3515L139.115 17.6258C137.746 18.4277 136.688 19.5578 135.95 20.9932L137.729 21.9074ZM140.127 19.3506C141.155 18.7459 142.404 18.4233 143.914 18.4233V16.4233C142.113 16.4233 140.5 16.8109 139.113 17.6267L140.127 19.3506ZM143.914 18.4233C145.423 18.4233 146.667 18.746 147.687 19.3493L148.705 17.628C147.324 16.8108 145.714 16.4233 143.914 16.4233V18.4233ZM147.693 19.3528C148.731 19.9575 149.53 20.8017 150.098 21.9074L151.877 20.9932C151.138 19.5562 150.076 18.426 148.699 17.6245L147.693 19.3528ZM150.099 21.9094C150.667 23.0074 150.968 24.3217 150.968 25.8821H152.968C152.968 24.0619 152.615 22.4216 151.876 20.9911L150.099 21.9094ZM150.968 25.8821C150.968 27.4267 150.667 28.7388 150.098 29.8461L151.877 30.7604C152.614 29.3252 152.968 27.6898 152.968 25.8821H150.968ZM150.099 29.8441C149.531 30.9436 148.731 31.79 147.689 32.403L148.703 34.1268C150.076 33.3194 151.137 32.1913 151.876 30.7624L150.099 29.8441ZM147.691 32.4021C146.671 32.9997 145.425 33.3196 143.914 33.3196V35.3196C145.712 35.3196 147.321 34.9364 148.702 34.1278L147.691 32.4021ZM143.935 31.804C144.889 31.804 145.756 31.5285 146.466 30.9286L145.175 29.401C144.876 29.6533 144.487 29.804 143.935 29.804V31.804ZM146.472 30.9233C147.135 30.3542 147.604 29.6032 147.906 28.7206L146.014 28.072C145.806 28.6809 145.515 29.1089 145.169 29.4063L146.472 30.9233ZM147.904 28.7287C148.211 27.8569 148.355 26.8927 148.355 25.8501H146.355C146.355 26.711 146.236 27.4442 146.017 28.064L147.904 28.7287ZM148.355 25.8501C148.355 24.8076 148.211 23.8434 147.904 22.9716L146.017 23.6363C146.236 24.2561 146.355 24.9893 146.355 25.8501H148.355ZM147.906 22.9797C147.604 22.0971 147.135 21.3461 146.472 20.777L145.169 22.294C145.515 22.5914 145.806 23.0194 146.014 23.6283L147.906 22.9797ZM146.472 20.777C145.762 20.1673 144.893 19.8857 143.935 19.8857V21.8857C144.482 21.8857 144.87 22.0373 145.169 22.294L146.472 20.777ZM143.935 19.8857C142.972 19.8857 142.097 20.1658 141.376 20.7682L142.658 22.3029C142.975 22.0387 143.378 21.8857 143.935 21.8857V19.8857ZM141.371 20.7725C140.702 21.3396 140.224 22.0889 139.913 22.9716L141.799 23.6363C142.014 23.0276 142.31 22.5979 142.664 22.2985L141.371 20.7725ZM139.91 22.9797C139.612 23.8488 139.472 24.8102 139.472 25.8501H141.472C141.472 24.9866 141.589 24.2506 141.802 23.6283L139.91 22.9797ZM139.472 25.8501C139.472 26.8901 139.612 27.8514 139.91 28.7206L141.802 28.072C141.589 27.4497 141.472 26.7136 141.472 25.8501H139.472ZM139.913 28.7287C140.224 29.6114 140.702 30.3607 141.371 30.9278L142.664 29.4018C142.31 29.1024 142.014 28.6727 141.799 28.064L139.913 28.7287ZM141.382 30.9373C142.103 31.5299 142.976 31.804 143.935 31.804V29.804C143.374 29.804 142.968 29.6519 142.652 29.3922L141.382 30.9373ZM154.919 34H153.919V35H154.919V34ZM154.919 17.6364V16.6364H153.919V17.6364H154.919ZM159.318 17.6364H160.318V16.6364H159.318V17.6364ZM159.318 20.4915H158.318V21.4915H159.318V20.4915ZM159.489 20.4915V21.4915H160.237L160.448 20.7733L159.489 20.4915ZM160.991 18.1903L161.584 18.9952L161.59 18.9913L160.991 18.1903ZM164.155 17.4446L164.262 16.4504L164.262 16.4504L164.155 17.4446ZM164.847 17.5618H165.847V16.781L165.09 16.5916L164.847 17.5618ZM164.847 21.5888L164.56 22.5466L165.847 22.9328V21.5888H164.847ZM161.14 21.7805L161.621 22.6575L161.625 22.6553L161.14 21.7805ZM159.904 22.9737L159.046 22.461L159.041 22.4699L159.904 22.9737ZM159.457 34V35H160.457V34H159.457ZM155.919 34V17.6364H153.919V34H155.919ZM154.919 18.6364H159.318V16.6364H154.919V18.6364ZM158.318 17.6364V20.4915H160.318V17.6364H158.318ZM159.318 21.4915H159.489V19.4915H159.318V21.4915ZM160.448 20.7733C160.698 19.9217 161.092 19.3584 161.584 18.9952L160.397 17.3855C159.484 18.0592 158.876 19.03 158.529 20.2097L160.448 20.7733ZM161.59 18.9913C162.112 18.6009 162.709 18.402 163.42 18.402V16.402C162.298 16.402 161.276 16.7287 160.392 17.3894L161.59 18.9913ZM163.42 18.402C163.606 18.402 163.815 18.4137 164.048 18.4388L164.262 16.4504C163.97 16.4187 163.688 16.402 163.42 16.402V18.402ZM164.048 18.4388C164.277 18.4636 164.461 18.496 164.605 18.5319L165.09 16.5916C164.836 16.5282 164.559 16.4824 164.262 16.4504L164.048 18.4388ZM163.847 17.5618V21.5888H165.847V17.5618H163.847ZM165.135 20.631C164.847 20.5447 164.492 20.4795 164.094 20.4269L163.832 22.4097C164.187 22.4566 164.422 22.505 164.56 22.5466L165.135 20.631ZM164.094 20.4269C163.683 20.3727 163.294 20.3438 162.93 20.3438V22.3438C163.19 22.3438 163.49 22.3646 163.832 22.4097L164.094 20.4269ZM162.93 20.3438C162.112 20.3438 161.345 20.5236 160.655 20.9058L161.625 22.6553C161.986 22.4551 162.413 22.3438 162.93 22.3438V20.3438ZM160.66 20.9036C159.984 21.2739 159.442 21.7979 159.046 22.461L160.763 23.4865C160.978 23.1268 161.26 22.8554 161.621 22.6575L160.66 20.9036ZM159.041 22.4699C158.642 23.1529 158.457 23.9206 158.457 24.7422H160.457C160.457 24.2285 160.57 23.8172 160.768 23.4776L159.041 22.4699ZM158.457 24.7422V34H160.457V24.7422H158.457ZM159.457 33H154.919V35H159.457V33ZM168.874 39.9979L169.055 39.0142L169.043 39.0122L168.874 39.9979ZM167.639 39.6676L166.681 39.3786L166.419 40.246L167.257 40.5919L167.639 39.6676ZM168.661 36.2798L168.955 35.3238L167.994 35.0293L167.704 35.9908L168.661 36.2798ZM170.1 36.5462L170.066 37.5456L170.067 37.5456L170.1 36.5462ZM171.218 36.2479L170.663 35.4158L170.655 35.4216L171.218 36.2479ZM171.996 35.1612L172.928 35.5237L172.929 35.5202L171.996 35.1612ZM172.262 34.4688L173.196 34.8277L173.327 34.4856L173.206 34.1395L172.262 34.4688ZM166.392 17.6364V16.6364H164.984L165.448 17.9656L166.392 17.6364ZM171.165 17.6364L172.127 17.365L171.922 16.6364H171.165V17.6364ZM174.553 29.6534L173.59 29.9247L173.796 30.6534H174.553V29.6534ZM174.723 29.6534V30.6534H175.478L175.685 29.9271L174.723 29.6534ZM178.143 17.6364V16.6364H177.388L177.181 17.3627L178.143 17.6364ZM182.948 17.6364L183.891 17.9674L184.358 16.6364H182.948V17.6364ZM176.588 35.7685L175.644 35.4375L175.643 35.4408L176.588 35.7685ZM175.341 38.0696L174.562 37.4428L174.554 37.4522L175.341 38.0696ZM173.37 39.593L172.963 38.6799L172.956 38.683L173.37 39.593ZM170.494 39.1364C169.972 39.1364 169.493 39.0944 169.055 39.0142L168.694 40.9815C169.265 41.0859 169.865 41.1364 170.494 41.1364V39.1364ZM169.043 39.0122C168.591 38.9347 168.257 38.8409 168.02 38.7434L167.257 40.5919C167.674 40.7642 168.164 40.8906 168.706 40.9835L169.043 39.0122ZM168.596 39.9566L169.619 36.5688L167.704 35.9908L166.681 39.3786L168.596 39.9566ZM168.368 37.2359C168.961 37.4177 169.53 37.5277 170.066 37.5456L170.133 35.5467C169.817 35.5362 169.427 35.4687 168.955 35.3238L168.368 37.2359ZM170.067 37.5456C170.68 37.5657 171.269 37.4236 171.782 37.0741L170.655 35.4216C170.543 35.4982 170.386 35.555 170.132 35.5467L170.067 37.5456ZM171.773 37.0799C172.323 36.7135 172.685 36.1477 172.928 35.5237L171.064 34.7988C170.909 35.1974 170.753 35.3561 170.664 35.4158L171.773 37.0799ZM172.929 35.5202L173.196 34.8277L171.329 34.1098L171.063 34.8022L172.929 35.5202ZM173.206 34.1395L167.336 17.3071L165.448 17.9656L171.318 34.798L173.206 34.1395ZM166.392 18.6364H171.165V16.6364H166.392V18.6364ZM170.202 17.9077L173.59 29.9247L175.515 29.3821L172.127 17.365L170.202 17.9077ZM174.553 30.6534H174.723V28.6534H174.553V30.6534ZM175.685 29.9271L179.105 17.9101L177.181 17.3627L173.761 29.3797L175.685 29.9271ZM178.143 18.6364H182.948V16.6364H178.143V18.6364ZM182.004 17.3054L175.644 35.4375L177.531 36.0995L183.891 17.9674L182.004 17.3054ZM175.643 35.4408C175.371 36.2251 175.008 36.8883 174.562 37.4428L176.12 38.6964C176.725 37.9441 177.193 37.0732 177.532 36.0961L175.643 35.4408ZM174.554 37.4522C174.14 37.9799 173.615 38.3885 172.963 38.6799L173.778 40.5062C174.716 40.0873 175.505 39.4803 176.128 38.687L174.554 37.4522ZM172.956 38.683C172.322 38.9716 171.512 39.1364 170.494 39.1364V41.1364C171.72 41.1364 172.828 40.9389 173.785 40.5031L172.956 38.683Z" fill="#262626" mask="url(#path-2-outside-1_8129_246)"/>
</g>
</g>
</svg>
