<svg width="194" height="36" viewBox="0 0 194 36" fill="none" xmlns="http://www.w3.org/2000/svg">
<path d="M34.4382 25.1648V21.532L43.5469 7.18182H46.679V12.2102H44.8253L39.0831 21.2976V21.468H52.027V25.1648H34.4382ZM44.9105 29V24.0568L44.9957 22.4482V7.18182H49.321V29H44.9105ZM55.1431 29V12.6364H59.6815V29H55.1431ZM57.4229 10.527C56.7482 10.527 56.1694 10.3033 55.6864 9.85582C55.2106 9.40128 54.9727 8.85795 54.9727 8.22585C54.9727 7.60085 55.2106 7.06463 55.6864 6.61719C56.1694 6.16264 56.7482 5.93537 57.4229 5.93537C58.0977 5.93537 58.6729 6.16264 59.1488 6.61719C59.6317 7.06463 59.8732 7.60085 59.8732 8.22585C59.8732 8.85795 59.6317 9.40128 59.1488 9.85582C58.6729 10.3033 58.0977 10.527 57.4229 10.527ZM67.8553 19.5398V29H63.3169V12.6364H67.6422V15.5234H67.834C68.1962 14.5717 68.8034 13.8189 69.6557 13.2649C70.508 12.7038 71.5414 12.4233 72.7559 12.4233C73.8922 12.4233 74.883 12.6719 75.7282 13.169C76.5733 13.6662 77.2303 14.3764 77.699 15.2997C78.1678 16.2159 78.4022 17.3097 78.4022 18.581V29H73.8638V19.3906C73.8709 18.3892 73.6152 17.608 73.0968 17.0469C72.5783 16.4787 71.8645 16.1946 70.9554 16.1946C70.3446 16.1946 69.8049 16.326 69.3361 16.5888C68.8745 16.8516 68.5123 17.2351 68.2495 17.7393C67.9938 18.2365 67.8624 18.8366 67.8553 19.5398ZM96.6488 12.6364L90.9279 29H85.8143L80.0934 12.6364H84.8874L88.2859 24.3445H88.4563L91.8441 12.6364H96.6488ZM105.901 29.3196C104.218 29.3196 102.769 28.9787 101.555 28.2969C100.347 27.608 99.4169 26.6349 98.7635 25.3778C98.1101 24.1136 97.7834 22.6186 97.7834 20.8928C97.7834 19.2095 98.1101 17.7322 98.7635 16.4609C99.4169 15.1896 100.337 14.1989 101.523 13.4886C102.716 12.7784 104.115 12.4233 105.72 12.4233C106.8 12.4233 107.805 12.5973 108.735 12.9453C109.673 13.2862 110.489 13.8011 111.185 14.4901C111.888 15.179 112.435 16.0455 112.826 17.0895C113.217 18.1264 113.412 19.3409 113.412 20.733V21.9794H99.5945V19.1669H109.14C109.14 18.5135 108.998 17.9347 108.714 17.4304C108.43 16.9261 108.036 16.532 107.531 16.2479C107.034 15.9567 106.455 15.8111 105.795 15.8111C105.106 15.8111 104.495 15.9709 103.962 16.2905C103.437 16.603 103.025 17.0256 102.727 17.5582C102.428 18.0838 102.276 18.6697 102.268 19.3161V21.9901C102.268 22.7997 102.418 23.4993 102.716 24.0888C103.021 24.6783 103.451 25.1328 104.005 25.4524C104.559 25.772 105.216 25.9318 105.976 25.9318C106.48 25.9318 106.942 25.8608 107.361 25.7188C107.78 25.5767 108.138 25.3636 108.437 25.0795C108.735 24.7955 108.962 24.4474 109.119 24.0355L113.316 24.3125C113.103 25.321 112.666 26.2017 112.006 26.9545C111.352 27.7003 110.507 28.2827 109.47 28.7017C108.44 29.1136 107.251 29.3196 105.901 29.3196ZM120.912 19.5398V29H116.374V12.6364H120.699V15.5234H120.891C121.253 14.5717 121.86 13.8189 122.712 13.2649C123.565 12.7038 124.598 12.4233 125.812 12.4233C126.949 12.4233 127.94 12.6719 128.785 13.169C129.63 13.6662 130.287 14.3764 130.756 15.2997C131.224 16.2159 131.459 17.3097 131.459 18.581V29H126.92V19.3906C126.928 18.3892 126.672 17.608 126.153 17.0469C125.635 16.4787 124.921 16.1946 124.012 16.1946C123.401 16.1946 122.862 16.326 122.393 16.5888C121.931 16.8516 121.569 17.2351 121.306 17.7393C121.05 18.2365 120.919 18.8366 120.912 19.5398ZM143.74 12.6364V16.0455H133.885V12.6364H143.74ZM136.122 8.71591H140.661V23.9716C140.661 24.3906 140.725 24.7173 140.852 24.9517C140.98 25.179 141.158 25.3388 141.385 25.4311C141.619 25.5234 141.889 25.5696 142.195 25.5696C142.408 25.5696 142.621 25.5518 142.834 25.5163C143.047 25.4737 143.21 25.4418 143.324 25.4205L144.038 28.7976C143.811 28.8686 143.491 28.9503 143.079 29.0426C142.667 29.142 142.166 29.2024 141.577 29.2237C140.483 29.2663 139.524 29.1207 138.7 28.7869C137.884 28.4531 137.248 27.9347 136.794 27.2315C136.339 26.5284 136.115 25.6406 136.122 24.5682V8.71591ZM153.914 29.3196C152.259 29.3196 150.828 28.968 149.62 28.2649C148.42 27.5547 147.493 26.5675 146.84 25.3033C146.186 24.032 145.86 22.5582 145.86 20.8821C145.86 19.1918 146.186 17.7145 146.84 16.4503C147.493 15.179 148.42 14.1918 149.62 13.4886C150.828 12.7784 152.259 12.4233 153.914 12.4233C155.568 12.4233 156.996 12.7784 158.196 13.4886C159.404 14.1918 160.334 15.179 160.987 16.4503C161.641 17.7145 161.968 19.1918 161.968 20.8821C161.968 22.5582 161.641 24.032 160.987 25.3033C160.334 26.5675 159.404 27.5547 158.196 28.2649C156.996 28.968 155.568 29.3196 153.914 29.3196ZM153.935 25.804C154.688 25.804 155.316 25.5909 155.82 25.1648C156.325 24.7315 156.705 24.142 156.96 23.3963C157.223 22.6506 157.355 21.8018 157.355 20.8501C157.355 19.8984 157.223 19.0497 156.96 18.304C156.705 17.5582 156.325 16.9687 155.82 16.5355C155.316 16.1023 154.688 15.8857 153.935 15.8857C153.175 15.8857 152.536 16.1023 152.017 16.5355C151.506 16.9687 151.119 17.5582 150.856 18.304C150.6 19.0497 150.472 19.8984 150.472 20.8501C150.472 21.8018 150.6 22.6506 150.856 23.3963C151.119 24.142 151.506 24.7315 152.017 25.1648C152.536 25.5909 153.175 25.804 153.935 25.804ZM164.919 29V12.6364H169.318V15.4915H169.489C169.787 14.4759 170.288 13.7088 170.991 13.1903C171.694 12.6648 172.504 12.402 173.42 12.402C173.647 12.402 173.892 12.4162 174.155 12.4446C174.418 12.473 174.649 12.5121 174.847 12.5618V16.5888C174.634 16.5249 174.34 16.468 173.963 16.4183C173.587 16.3686 173.242 16.3438 172.93 16.3438C172.262 16.3438 171.666 16.4893 171.14 16.7805C170.622 17.0646 170.21 17.4624 169.904 17.9737C169.606 18.4851 169.457 19.0746 169.457 19.7422V29H164.919ZM180.494 35.1364C179.919 35.1364 179.379 35.0902 178.874 34.9979C178.377 34.9126 177.965 34.8026 177.639 34.6676L178.661 31.2798C179.194 31.4432 179.673 31.532 180.1 31.5462C180.533 31.5604 180.906 31.4609 181.218 31.2479C181.538 31.0348 181.797 30.6726 181.996 30.1612L182.262 29.4688L176.392 12.6364H181.165L184.553 24.6534H184.723L188.143 12.6364H192.948L186.588 30.7685C186.282 31.6491 185.867 32.4162 185.341 33.0696C184.823 33.7301 184.166 34.2379 183.37 34.593C182.575 34.9553 181.616 35.1364 180.494 35.1364Z" fill="white"/>
<path d="M4.4 11.3333L16 18M16 18L27.6 11.3333M16 18V31.3333M28 12.6667C27.9995 12.199 27.8761 11.7397 27.6421 11.3349C27.408 10.93 27.0717 10.5938 26.6667 10.36L17.3333 5.02667C16.9279 4.79262 16.4681 4.6694 16 4.6694C15.5319 4.6694 15.0721 4.79262 14.6667 5.02667L5.33333 10.36C4.92835 10.5938 4.59197 10.93 4.35795 11.3349C4.12392 11.7397 4.00048 12.199 4 12.6667V23.3333C4.00048 23.801 4.12392 24.2603 4.35795 24.6651C4.59197 25.07 4.92835 25.4062 5.33333 25.64L14.6667 30.9733C15.0721 31.2074 15.5319 31.3306 16 31.3306C16.4681 31.3306 16.9279 31.2074 17.3333 30.9733L26.6667 25.64C27.0717 25.4062 27.408 25.07 27.6421 24.6651C27.8761 24.2603 27.9995 23.801 28 23.3333V12.6667Z" stroke="#FAFAFA" stroke-width="2" stroke-linecap="round" stroke-linejoin="round"/>
</svg>
