<svg class="border shadow-md dark:border-slate-700" viewBox="0 0 896.72 504.40500000000003" style="width: 896.72px; height: 504.405px;" xmlns="http://www.w3.org/2000/svg" preserveAspectRatio="none"><rect class="bg" id="bg" x="0" y="0" width="896.72" height="504.40500000000003" fill="#ffffff"/><g transform="rotate(0 448.36 252.20250000000001)"><path d="M -548.36 -54.07 S -284.18 -96.10&#10;            0.00 -54.07 85.36 -130.07&#10;            548.36 -54.07 812.54 -96.10&#10;            1096.72 -54.07 1094.08 -96.10&#10;            1645.08 -54.07 h 110 V 704.405 H -548.36 Z" fill="#525252" id="-1"/><path d="M -548.36 30.00 S -284.18 -12.03&#10;            0.00 30.00 92.36 -12.03&#10;            548.36 30.00 710.72 -26.00&#10;            1096.72 30.00 1360.90 -14.00&#10;            1645.08 30.00 h 110 V 704.405 H -548.36 Z" fill="#6a6a6a" id="0"/><path d="M -548.36 114.07 S -386.00 72.03&#10;            0.00 114.07 264.18 72.03&#10;            548.36 114.07 754.72 48.07&#10;            1096.72 114.07 1360.90 48.07&#10;            1645.08 114.07 h 110 V 704.405 H -548.36 Z" fill="#828282" id="1"/><path d="M -548.36 198.14 S -284.18 156.10&#10;            0.00 198.14 264.18 152.14&#10;            548.36 198.14 812.54 156.10&#10;            1096.72 198.14 1360.90 156.10&#10;            1645.08 198.14 h 110 V 704.405 H -548.36 Z" fill="#9a9a9a" id="2"/><path d="M -548.36 282.20 S -284.18 240.17&#10;            0.00 282.20 196.36 214.20&#10;            548.36 282.20 732.72 240.17&#10;            1096.72 282.20 1360.90 221.20&#10;            1645.08 282.20 h 110 V 704.405 H -548.36 Z" fill="#b2b2b2" id="3"/><path d="M -548.36 366.27 S -352.00 321.27&#10;            0.00 366.27 264.18 324.24&#10;            548.36 366.27 771.72 283.27&#10;            1096.72 366.27 1355.08 324.24&#10;            1645.08 366.27 h 110 V 704.405 H -548.36 Z" fill="#cacaca" id="4"/><path d="M -548.36 450.34 S -284.18 408.30&#10;            0.00 450.34 264.18 379.34&#10;            548.36 450.34 812.54 408.30&#10;            1096.72 450.34 1324.08 408.30&#10;            1645.08 450.34 h 110 V 704.405 H -548.36 Z" fill="#e2e2e2" id="5"/></g></svg>